:SAMPLES-PER-SECOND 24
:FULLY-SPECIFIED
:DEGREES
148
root  -1.38742 41.6583 5.13693 114.177 -51.4453 -120.778
RightUpLeg  -45.5755 -37.4287 -29.3379
RightLeg  110.414 -5.24633 13.5186
RightFoot  -10.2394 -0.173671 11.0004
RightToes  -1.74623e-010 0 -2.59999e-017
Spine  0.624533 -2.11784 -7.60845
Spine1  18.3939 -9.90327 17.9664
HEad  8.85546 -33.4435 10.3829
LeftShoulder1  2.4131 -4.601 -23.5257
LeftArm  39.9427 -25.7842 -70.6614
LeftForeArm  102.393 -79.4995 -104.427
LeftHand  -0.157742 4.41528 17.813
RightShoulder  3.83781 5.99707 34.508
RightArm  -21.6051 1.10973 20.0251
RightForeArm  159.919 53.1668 165.815
RightHand  -0.602622 -1.57089 -18.1804
LeftUpLeg  1.35843 16.5413 21.8435
LeftLeg  18.8938 16.625 3.65702
LeftFoot  5.2741 -0.785661 5.14955
LeftToes  -6.27559e-011 -2.10356e-011 8.24929e-012
149
root  -1.46218 41.2797 6.15703 128.499 -52.2224 -136.947
RightUpLeg  -47.899 -30.5695 -22.9838
RightLeg  109.904 -3.94537 10.6395
RightFoot  -6.95082 -0.371151 8.29629
RightToes  -1.74623e-010 0 -2.59999e-017
Spine  -0.621564 -0.583064 -5.69281
Spine1  19.3778 -6.1019 13.0555
HEad  9.36439 -32.1111 8.57931
LeftShoulder1  2.54779 -4.92934 -24.0013
LeftArm  34.0207 -20.6827 -64.3373
LeftForeArm  108.857 -79.1092 -111.023
LeftHand  -0.12806 4.57063 16.827
RightShoulder  3.67078 5.79535 33.598
RightArm  -22.7542 4.32745 22.0844
RightForeArm  160.94 52.9972 165.973
RightHand  -0.599855 -1.56523 -18.0748
LeftUpLeg  2.03731 -0.408992 14.6587
LeftLeg  25.397 -1.81554 -0.272829
LeftFoot  4.25548 -0.883662 6.2059
LeftToes  -6.27559e-011 -2.10356e-011 8.24929e-012
150
root  -1.54602 40.4029 7.12001 142.051 -48.8267 -151.687
RightUpLeg  -47.4489 -22.7331 -17.0133
RightLeg  108.74 -3.43485 9.96392
RightFoot  -3.14503 -0.496794 6.66083
RightToes  -1.74623e-010 0 -2.59999e-017
Spine  -1.27045 1.54504 -3.12255
Spine1  19.4709 -1.94194 8.17766
HEad  7.4433 -30.938 7.48314
LeftShoulder1  2.42977 -4.84224 -22.8294
LeftArm  29.1385 -16.0566 -62.2501
LeftForeArm  116.323 -78.7022 -116.846
LeftHand  -0.0924496 4.83598 17.3714
RightShoulder  3.24434 5.29876 30.9587
RightArm  -24.6325 8.60446 24.196
RightForeArm  162.943 53.1278 166.063
RightHand  -0.563271 -1.60502 -17.1409
LeftUpLeg  4.8478 -13.7856 8.0297
LeftLeg  26.5278 -7.69742 -3.79327
LeftFoot  -3.66858 -0.33123 5.17084
LeftToes  -6.27559e-011 -2.10356e-011 8.24929e-012
151
root  -1.59403 39.4028 8.06327 153.589 -46.3024 -163.255
RightUpLeg  -42.9986 -20.0758 -14.2606
RightLeg  105.492 -1.82506 6.8714
RightFoot  -0.911986 -0.468245 5.05815
RightToes  -1.74623e-010 0 -2.59999e-017
Spine  -2.24961 2.33814 -4.37375
Spine1  19.4421 -0.208305 4.50629
HEad  3.87044 -28.9388 6.13687
LeftShoulder1  2.27179 -4.24487 -23.0495
LeftArm  25.7298 -13.5951 -59.4771
LeftForeArm  127.999 -77.4382 -127.314
LeftHand  -0.0617528 5.04927 17.7636
RightShoulder  2.89566 4.88987 28.563
RightArm  -26.0636 15.6162 26.5407
RightForeArm  166.473 54.2864 165.772
RightHand  -0.474157 -1.9404 -15.7814
LeftUpLeg  2.78208 -9.96573 1.68962
LeftLeg  26.4746 -8.59278 -4.27259
LeftFoot  -8.03351 -0.155666 7.05908
LeftToes  -6.27559e-011 -2.10356e-011 8.24929e-012
152
root  -1.62856 38.4542 9.15147 162.098 -45.8434 -169.922
RightUpLeg  -35.6515 -22.9833 -12.9378
RightLeg  98.3935 -0.578496 4.94441
RightFoot  0.39304 -0.572761 5.59608
RightToes  -1.74623e-010 0 -2.59999e-017
Spine  -4.05124 1.70918 -5.4323
Spine1  20.401 -0.518447 3.34232
HEad  -0.733838 -27.3932 5.97285
LeftShoulder1  2.23944 -3.86158 -24.1879
LeftArm  25.2229 -14.3233 -57.6561
LeftForeArm  131.916 -77.0855 -129.844
LeftHand  -0.0621403 5.04019 17.3051
RightShoulder  2.92877 4.9714 28.6198
RightArm  -28.5241 22.0238 25.9712
RightForeArm  167.284 55.5801 165.177
RightHand  -0.453502 -2.0475 -15.5566
LeftUpLeg  -4.14999 -2.70421 -3.64986
LeftLeg  29.2786 -7.34713 -4.06661
LeftFoot  -9.38679 -0.132873 10.9205
LeftToes  -6.27559e-011 -2.10356e-011 8.24929e-012
153
root  -1.73544 38.0435 10.1413 167.135 -42.263 -174.33
RightUpLeg  -24.9626 -23.9903 -11.6468
RightLeg  87.004 0.302431 2.60891
RightFoot  0.572975 -0.596457 5.74624
RightToes  -1.74623e-010 0 -2.59999e-017
Spine  -4.1982 2.41603 -3.5068
Spine1  21.0522 0.860895 1.62151
HEad  -4.76245 -26.1616 7.31717
LeftShoulder1  2.20846 -3.8677 -23.7243
LeftArm  27.0321 -15.1746 -58.6361
LeftForeArm  128.653 -78.2353 -123.527
LeftHand  -0.120575 4.61368 16.595
RightShoulder  3.09856 5.22372 29.5915
RightArm  -30.2615 24.6259 25.5986
RightForeArm  165.578 56.3459 164.628
RightHand  -0.474914 -1.98047 -15.9904
LeftUpLeg  -8.05677 0.474751 -7.17898
LeftLeg  30.6702 -6.2652 -3.62222
LeftFoot  -8.9936 -0.182169 11.5247
LeftToes  -6.27559e-011 -2.10356e-011 8.24929e-012
154
root  -1.90769 38.0796 10.9633 170.118 -33.8421 -178.312
RightUpLeg  -12.6324 -22.1057 -11.953
RightLeg  73.5464 -0.133569 -1.31667
RightFoot  -0.175209 -0.555712 5.65814
RightToes  -1.74623e-010 0 -2.59999e-017
Spine  -2.83231 4.12932 -0.927895
Spine1  20.4607 3.5055 -1.13257
HEad  -6.11711 -23.0047 6.85897
LeftShoulder1  2.17239 -4.02926 -22.5416
LeftArm  27.8646 -12.8085 -59.1097
LeftForeArm  125.707 -78.9059 -118.717
LeftHand  -0.203646 4.01941 16.5243
RightShoulder  3.1317 5.29422 29.6854
RightArm  -27.115 26.3552 30.0006
RightForeArm  165.403 57.4847 163.969
RightHand  -0.438305 -2.23241 -15.8891
LeftUpLeg  -8.67832 6.34227 -9.53952
LeftLeg  27.9428 -4.584 -2.26312
LeftFoot  -7.41209 -0.310416 10.3481
LeftToes  -6.27559e-011 -2.10356e-011 8.24929e-012
155
root  -2.09664 38.1801 11.7192 172.526 -23.9473 179.684
RightUpLeg  -1.88895 -21.6424 -13.6705
RightLeg  60.4487 -0.518901 -1.49102
RightFoot  -1.35263 -0.655888 7.38904
RightToes  -1.74623e-010 0 -2.59999e-017
Spine  -3.00003 4.83937 1.16702
Spine1  19.7206 4.7276 -2.02846
HEad  -5.90693 -16.9644 3.67934
LeftShoulder1  2.20925 -4.13384 -22.6338
LeftArm  26.7162 -8.89297 -57.4618
LeftForeArm  127.21 -78.7953 -119.909
LeftHand  -0.246115 3.7426 16.8015
RightShoulder  3.06262 5.24156 29.0962
RightArm  -19.4273 29.6403 37.7139
RightForeArm  166.532 59.4319 162.871
RightHand  -0.427841 -2.34054 -16.0454
LeftUpLeg  -10.3645 11.5938 -11.3212
LeftLeg  24.0195 -0.263337 0.226565
LeftFoot  -5.8685 -0.439823 9.91687
LeftToes  -6.27559e-011 -2.10356e-011 8.24929e-012
156
root  -2.19051 38.312 12.5193 174.409 -13.0319 178.961
RightUpLeg  6.49401 -21.6905 -16.6099
RightLeg  49.4474 1.89322 2.02679
RightFoot  -1.9884 -0.849489 10.1808
RightToes  -1.74623e-010 0 -2.59999e-017
Spine  -3.32747 5.20245 2.57931
Spine1  19.3261 5.2357 -1.87479
HEad  -6.83994 -9.22994 0.527883
LeftShoulder1  2.23462 -4.14862 -22.9254
LeftArm  24.73 -6.06876 -55.4714
LeftForeArm  130.85 -78.6186 -122.119
LeftHand  -0.236787 3.82698 17.0144
RightShoulder  2.94586 5.15389 28.0736
RightArm  -10.3447 32.8224 45.9067
RightForeArm  165.659 61.114 161.65
RightHand  -0.506664 -1.96273 -16.9779
LeftUpLeg  -13.1797 15.6964 -11.6395
LeftLeg  21.706 4.13011 2.07093
LeftFoot  -4.36701 -0.558127 9.57253
LeftToes  -6.27559e-011 -2.10356e-011 8.24929e-012
157
root  -2.14617 38.3993 13.4936 175.471 -0.687698 178.67
RightUpLeg  11.669 -20.1179 -19.9776
RightLeg  42.4984 5.1168 4.74413
RightFoot  -1.01596 -1.10025 12.0536
RightToes  -1.74623e-010 0 -2.59999e-017
Spine  -2.27255 5.74542 3.47969
Spine1  19.1508 5.99595 -2.57714
HEad  -8.91486 -0.939169 -1.6546
LeftShoulder1  2.21824 -4.2103 -22.4545
LeftArm  22.2085 -3.99821 -53.4426
LeftForeArm  132.994 -78.634 -122.694
LeftHand  -0.230685 3.91885 17.6081
RightShoulder  2.82677 5.04367 27.0873
RightArm  -1.48896 34.8372 53.0315
RightForeArm  162.39 61.9 160.755
RightHand  -0.536536 -1.93413 -17.851
LeftUpLeg  -16.3385 22.0152 -10.6352
LeftLeg  20.6419 8.91055 3.04111
LeftFoot  -2.85645 -0.664449 9.16964
LeftToes  -6.27559e-011 -2.10356e-011 8.24929e-012
